<?xml version="1.0" encoding="UTF-8"?>
<svg id="Layer_1" xmlns="http://www.w3.org/2000/svg" width="119" height="83" version="1.1" viewBox="0 0 119 83">
  <!-- Generator: Adobe Illustrator 29.2.1, SVG Export Plug-In . SVG Version: 2.1.0 Build 116)  -->
  <defs>
    <style>
      .st0 {
        fill: #0082ff;
      }
    </style>
  </defs>
  <g>
    <path class="st0" d="M12.36,66.77H0v-1.79h12.36v1.79ZM9.11,60.31v-2.57H.58v-1.82h11.12v4.09c0,1.33-.12,2.83-.38,3.88h-2.59c.27-1.02.38-2.41.38-3.57Z"/>
    <path class="st0" d="M19.59,62.87h-6v-4.35h4.64v-1.02h-4.64v-1.65h7.17v4.31h-4.66v1.07h3.83c1.21,0,1.89-.12,2.41-.41v-5.11h2.59v8.44h-2.59v-1.74c-.5.32-1.36.46-2.75.46ZM25.11,65.57v1.75h-10.75v-3.87h2.59v2.12h8.16Z"/>
    <path class="st0" d="M28.26,59.86h-1.45v-1.63h1.51c1.17,0,2.19-.01,2.82-.15.03-.17.06-.37.06-.58h-4.39v-1.66h6.93v1.21c0,.37-.03.71-.09,1.03h1.91v-2.38h2.59v6.49h-2.59v-2.33h-2.62c-1.09,1.59-3.3,2.4-6.45,2.59v-1.69c1.69-.12,2.9-.42,3.67-1.01-.56.07-1.23.1-1.91.1ZM38.15,67.37h-10.57v-4.71h10.57v4.71ZM35.59,65.68v-1.29h-5.46v1.29h5.46Z"/>
    <path class="st0" d="M42.05,64.66h-2.37v-1.8h12.36v1.8h-2.35v2.71h-2.53v-2.71h-2.57v2.71h-2.54v-2.71ZM49.46,59.98h2.14v1.77h-11.47v-1.77h1.88v-2.35h-1.66v-1.77h11.03v1.77h-1.67v.86c0,.54-.09,1.12-.25,1.49ZM47.15,57.62h-2.57v2.35h2.35c.15-.36.22-.9.22-1.38v-.97Z"/>
    <path class="st0" d="M55.96,60.3h3.67v1.76h-3.67v2.7h2.75c1.05,0,1.85-.05,2.47-.21v1.69c-.62.21-1.46.28-2.54.28h-5.22v-10.61h6.83v1.79h-4.29v2.6ZM62.07,55.71h2.59v11.54h-2.59v-5.35h-1.95v-1.81h1.95v-4.39Z"/>
    <path class="st0" d="M66.41,61.21c0-2.28.35-3.82,1.32-4.67.59-.54,1.4-.81,2.45-.81s1.86.27,2.45.81c.95.85,1.3,2.39,1.3,4.67s-.35,3.84-1.3,4.69c-.59.53-1.43.79-2.45.79s-1.86-.26-2.45-.79c-.96-.85-1.32-2.39-1.32-4.69ZM71.38,61.21c0-1.93-.15-2.99-.53-3.44-.18-.17-.41-.26-.67-.26-.27,0-.5.09-.67.26-.4.44-.53,1.5-.53,3.44s.13,3.03.53,3.46c.16.17.4.25.67.25.25,0,.49-.07.67-.25.38-.43.53-1.5.53-3.46ZM75.03,55.71h2.59v4.45h1.91v1.8h-1.91v5.3h-2.59v-11.54Z"/>
    <path class="st0" d="M82.08,61.84h-1.7v-1.79h1.77c1.18,0,2.11-.05,2.75-.23.04-.37.06-.74.06-1.15v-.97h-4.51v-1.79h7.07v2.51c0,4.78-2.22,7.34-7.14,8.23v-1.9c2.08-.49,3.42-1.5,4.08-3.12-.59.14-1.39.2-2.38.2ZM88.87,55.71h2.59v4.45h1.91v1.8h-1.91v5.3h-2.59v-11.54Z"/>
    <path class="st0" d="M97.99,66.52h-3.73v-10.61h5.2v1.76h-2.88v7.11h1.48c.74,0,1.39-.02,1.88-.14v1.66c-.49.15-1.18.21-1.95.21ZM100.62,61.86h-2.26v-1.81h2.26v-4.26h2.25v11.36h-2.25v-5.28ZM105.78,55.71v11.54h-2.29v-11.54h2.29Z"/>
    <path class="st0" d="M114.8,55.91v10.61h-7.07v-10.61h7.07ZM110.27,64.75h1.98v-7.06h-1.98v7.06ZM116.38,55.71h2.59v11.54h-2.59v-11.54Z"/>
    <path class="st0" d="M12.36,82.33H0v-1.79h12.36v1.79ZM9.11,75.87v-2.57H.58v-1.82h11.12v4.09c0,1.33-.12,2.83-.38,3.88h-2.59c.27-1.02.38-2.41.38-3.57Z"/>
    <path class="st0" d="M19.59,78.43h-6v-4.35h4.64v-1.02h-4.64v-1.65h7.17v4.31h-4.66v1.07h3.83c1.21,0,1.89-.12,2.41-.41v-5.11h2.59v8.44h-2.59v-1.74c-.5.32-1.36.46-2.75.46ZM25.11,81.13v1.75h-10.75v-3.87h2.59v2.12h8.16Z"/>
    <path class="st0" d="M28.26,75.42h-1.45v-1.63h1.51c1.17,0,2.19-.01,2.82-.15.03-.17.06-.37.06-.58h-4.39v-1.66h6.93v1.21c0,.37-.03.71-.09,1.03h1.91v-2.38h2.59v6.49h-2.59v-2.33h-2.62c-1.09,1.59-3.3,2.4-6.45,2.59v-1.69c1.69-.12,2.9-.42,3.67-1.01-.56.07-1.23.1-1.91.1ZM38.15,82.93h-10.57v-4.71h10.57v4.71ZM35.59,81.24v-1.29h-5.46v1.29h5.46Z"/>
    <path class="st0" d="M42.05,80.22h-2.37v-1.8h12.36v1.8h-2.35v2.71h-2.53v-2.71h-2.57v2.71h-2.54v-2.71ZM49.46,75.54h2.14v1.77h-11.47v-1.77h1.88v-2.35h-1.66v-1.77h11.03v1.77h-1.67v.86c0,.54-.09,1.12-.25,1.49ZM47.15,73.18h-2.57v2.35h2.35c.15-.36.22-.9.22-1.38v-.97Z"/>
    <path class="st0" d="M55.96,75.86h3.67v1.76h-3.67v2.7h2.75c1.05,0,1.85-.05,2.47-.21v1.69c-.62.21-1.46.28-2.54.28h-5.22v-10.61h6.83v1.79h-4.29v2.6ZM62.07,71.27h2.59v11.54h-2.59v-5.35h-1.95v-1.81h1.95v-4.39Z"/>
    <path class="st0" d="M66.41,76.77c0-2.28.35-3.82,1.32-4.67.59-.54,1.4-.81,2.45-.81s1.86.27,2.45.81c.95.85,1.3,2.39,1.3,4.67s-.35,3.84-1.3,4.69c-.59.53-1.43.79-2.45.79s-1.86-.26-2.45-.79c-.96-.85-1.32-2.39-1.32-4.69ZM71.38,76.77c0-1.93-.15-2.99-.53-3.44-.18-.17-.41-.26-.67-.26-.27,0-.5.09-.67.26-.4.44-.53,1.5-.53,3.44s.13,3.03.53,3.46c.16.17.4.25.67.25.25,0,.49-.07.67-.25.38-.43.53-1.5.53-3.46ZM75.03,71.27h2.59v4.45h1.91v1.8h-1.91v5.3h-2.59v-11.54Z"/>
    <path class="st0" d="M92.28,82.33h-12.36v-1.79h12.36v1.79ZM91.61,71.47v1.77h-8.44v1.2h8.29v1.75h-8.29v1.22h8.6v1.76h-11.19v-7.7h11.03Z"/>
    <path class="st0" d="M101.07,72v1.63h-8.09v-1.63h2.78v-1.05h2.59v1.05h2.72ZM93.34,76.18c0-.69.37-1.27,1.02-1.69.62-.39,1.52-.63,2.68-.63s2.04.23,2.66.63c.65.42,1.02,1,1.02,1.69s-.37,1.28-1.02,1.69c-.62.39-1.52.64-2.66.64s-2.06-.25-2.68-.64c-.65-.41-1.02-.99-1.02-1.69ZM93.96,80.61v-1.77h10.6v4.16h-2.59v-2.39h-8.01ZM95.8,76.18c0,.21.12.38.28.52.22.16.56.23.96.23s.72-.07.95-.23c.16-.14.28-.31.28-.52s-.12-.38-.28-.51c-.22-.16-.56-.25-.95-.25s-.74.09-.96.25c-.16.12-.28.3-.28.51ZM101.98,71.27h2.59v2.71h1.82v1.79h-1.82v2.62h-2.59v-7.12Z"/>
    <path class="st0" d="M109.61,77.63h-2.59v-1.65h6.5c.84,0,1.6,0,2.25-.14v1.58c-.64.17-1.42.21-2.32.21h-1.29v1.65h-2.56v-1.65ZM107.5,73.49c0-.64.31-1.16.84-1.52.69-.49,1.8-.73,3.12-.73s2.39.23,3.09.73c.55.36.86.87.86,1.52s-.31,1.16-.86,1.53c-.69.49-1.8.71-3.09.71s-2.42-.22-3.12-.71c-.53-.37-.84-.89-.84-1.53ZM119,81.23v1.7h-10.75v-3.35h2.59v1.65h8.16ZM113.04,73.49c0-.19-.09-.33-.24-.44-.27-.18-.75-.27-1.35-.27s-1.09.09-1.36.27c-.16.11-.25.26-.25.44,0,.2.09.34.25.44.27.18.75.28,1.36.28s1.08-.1,1.35-.28c.15-.1.24-.25.24-.44ZM118.82,71.27v8.82h-2.59v-.62h-2.74v-1.53h2.74v-6.68h2.59Z"/>
  </g>
  <path class="st0" d="M59.39,10.77h9.34C74.68,10.77,79.5,5.95,79.5,0h0s-20,0-20,0c-11.05,0-20,8.95-20,20h0c0,11.05,8.95,20,20,20h19.47v-21.84c0-.66-.54-1.2-1.2-1.2h-13.4c-.33,0-.65.14-.88.39l-4.61,4.99c-.25.27-.08.72.29.75,1.71.16,5.94.58,8.6,1.88,3.96,1.94,5.96,5.06,5.96,5.06h0s-14.34,0-14.34,0c-5.32,0-9.63-4.31-9.63-9.63h0c0-5.32,4.31-9.63,9.63-9.63Z"/>
</svg>